<svg xmlns="http://www.w3.org/2000/svg" xmlns:xlink="http://www.w3.org/1999/xlink" viewBox="0 0 454.74 373.42"><defs><style>.cls-1{isolation:isolate;}.cls-2{fill:#d9dffb;}.cls-3,.cls-7,.cls-8,.cls-9{opacity:0.2;mix-blend-mode:screen;}.cls-3{fill:url(#linear-gradient);}.cls-4{fill:#1b2c56;}.cls-5{fill:#99a6d6;}.cls-6{fill:#537ec5;}.cls-7{fill:url(#linear-gradient-2);}.cls-8{fill:url(#linear-gradient-3);}.cls-9{fill:url(#linear-gradient-4);}.cls-10{fill:#bdc9f4;}.cls-11{fill:#010038;}.cls-12{fill:#dec6a0;}.cls-13,.cls-15,.cls-31,.cls-32,.cls-35,.cls-36,.cls-37,.cls-39{fill:none;}.cls-13,.cls-15{stroke:#d5bb95;}.cls-13,.cls-15,.cls-31,.cls-35,.cls-36,.cls-37,.cls-39{stroke-miterlimit:10;}.cls-13{stroke-width:0.88px;}.cls-14{fill:url(#linear-gradient-5);}.cls-15{stroke-width:0.89px;}.cls-16{fill:#64a295;}.cls-17{fill:#f43d25;}.cls-18{fill:#565588;}.cls-19{fill:#49beb7;}.cls-20{fill:#ff502f;}.cls-21{fill:url(#linear-gradient-6);}.cls-22{fill:#ffb100;}.cls-23{fill:#ffaf00;}.cls-24{fill:#fffdff;}.cls-25{fill:#cfd1d2;}.cls-26{fill:#212f47;}.cls-27{fill:#11014c;}.cls-28{fill:#18005b;}.cls-29{fill:#3cafa4;}.cls-30{fill:#fff;}.cls-31{stroke:#bb4972;stroke-width:0.9px;}.cls-33{fill:#c1b9a2;}.cls-34{fill:#f8f7f6;}.cls-35,.cls-36,.cls-37{stroke:#99a6d6;}.cls-35{stroke-width:0.54px;}.cls-36{stroke-width:0.32px;}.cls-37{stroke-width:0.26px;}.cls-38{fill:#13264c;}.cls-39{stroke:#434244;stroke-width:0.4px;}</style><linearGradient id="linear-gradient" x1="663.66" y1="401.33" x2="663.66" y2="248.54" gradientUnits="userSpaceOnUse"><stop offset="0" stop-color="#fff"/><stop offset="1"/></linearGradient><linearGradient id="linear-gradient-2" x1="105.88" y1="206.78" x2="105.88" y2="143.29" xlink:href="#linear-gradient"/><linearGradient id="linear-gradient-3" x1="681.12" y1="402.42" x2="681.12" y2="300.97" xlink:href="#linear-gradient"/><linearGradient id="linear-gradient-4" x1="342.23" y1="206.78" x2="342.23" y2="143.29" xlink:href="#linear-gradient"/><linearGradient id="linear-gradient-5" x1="1541.97" y1="250.3" x2="1562.84" y2="250.3" gradientTransform="matrix(-1, 0, 0, 1, 2229.5, 0)" gradientUnits="userSpaceOnUse"><stop offset="0.06" stop-color="#3d2a5c"/><stop offset="1" stop-color="#281349"/></linearGradient><linearGradient id="linear-gradient-6" x1="1550.38" y1="247.28" x2="1561.85" y2="247.28" xlink:href="#linear-gradient-5"/></defs><title>404</title><g class="cls-1"><g id="Слой_1" data-name="Слой 1"><path class="cls-2" d="M457.66,404.58c-2.06-18.15,1.72-37,14.3-50.85,11-12.15,29.42-13.79,39.37-26.8,7.34-9.55,7.82-22.61,12-33.55,2.74-7.17,7.18-13.9,13.63-18.06,5.46-3.52,12-5,18.52-5.43a68.16,68.16,0,0,1,30.22,4.79,83,83,0,0,0,30.93,6.05c12.45.17,24.22-1.87,36.19-5,11.72-3,24.12-4.13,34.89-10,15.22-8.31,26.14-19.7,44.08-22.17,19.18-2.65,40.55,4,53.62,18.61,8.82,9.87,12.55,22.68,9.77,35.69-1.72,8-5.75,16.86.48,24,4.11,4.74,10.79,6.26,17,6.73,16.82,1.28,31.54,4.66,43.7,17.36,12,12.55,13,24.7,13.75,41.17a72.12,72.12,0,0,1-1.59,17.46c-.29,1.45-.61,2.9-.94,4.34-.21.88-.42,1.75-.64,2.63-1.8,7.17-5,14.67-5,22.13-.09,13.36,12,20.16,17.45,31,.47.92,3.74,9.94,3.79,9.94H522.16c-3.58,0-7.41.4-11,0-25.27-2.81-42.54-30.52-49.72-52.52" transform="translate(-456.45 -196.45)"/><path class="cls-3" d="M457.66,404.58c-2.06-18.15,1.72-37,14.3-50.85,11-12.15,29.42-13.79,39.37-26.8,7.34-9.55,7.82-22.61,12-33.55,2.74-7.17,7.18-13.9,13.63-18.06,5.46-3.52,12-5,18.52-5.43a68.16,68.16,0,0,1,30.22,4.79,83,83,0,0,0,30.93,6.05c12.45.17,24.22-1.87,36.19-5,11.72-3,24.12-4.13,34.89-10,15.22-8.31,26.14-19.7,44.08-22.17,19.18-2.65,40.55,4,53.62,18.61,8.82,9.87,12.55,22.68,9.77,35.69-1.72,8-5.75,16.86.48,24,4.11,4.74,10.79,6.26,17,6.73,16.82,1.28,31.54,4.66,43.7,17.36,12,12.55,13,24.7,13.75,41.17a72.12,72.12,0,0,1-1.59,17.46H457.66" transform="translate(-456.45 -196.45)"/><path class="cls-4" d="M603.7,420.27V337.44H567.89L521,404.58l-12.28,17.57V448h63v24.37H603.7V448h15.36V420.27Zm-29.81,0H542.42l10.38-15.69,21.09-31.9Z" transform="translate(-456.45 -196.45)"/><path class="cls-5" d="M622,464v9.15H540.52a7.68,7.68,0,0,1,6-6.23c3.93-.75,6.76,2.2,7,2.39.17-.61,1.88-6.18,7.44-8.15a11.82,11.82,0,0,1,7.67,0A5.48,5.48,0,0,1,575.3,454,10.83,10.83,0,0,1,595,457.32a5.46,5.46,0,0,1,9.85,1.44A10,10,0,0,1,622,464Z" transform="translate(-456.45 -196.45)"/><path class="cls-4" d="M681.12,297.29c-39,0-52.67,29.24-52.67,69.34,0,14.32,1.72,27.23,5.67,37.95,7.18,19.57,21.8,31.77,47,31.77s39.81-12.2,47-31.77c3.94-10.72,5.66-23.63,5.66-37.95C733.78,326.53,720.09,297.29,681.12,297.29Zm0,109.07a20.73,20.73,0,0,1-8.94-1.78c-10.76-5-12.25-20.26-12.25-37.95,0-21,2.25-39.35,21.19-39.35s21.17,18.37,21.17,39.35c0,17.69-1.49,32.9-12.24,37.95A20.71,20.71,0,0,1,681.12,406.36Z" transform="translate(-456.45 -196.45)"/><path class="cls-5" d="M817.73,465.44v7.69H749.3a6.46,6.46,0,0,1,5-5.23,6.82,6.82,0,0,1,5.84,2c.15-.51,1.58-5.19,6.25-6.85a10,10,0,0,1,6.45,0,4.6,4.6,0,0,1,5.64-6A9.11,9.11,0,0,1,795,459.83a4.58,4.58,0,0,1,8.27,1.21,8.44,8.44,0,0,1,14.42,4.4Z" transform="translate(-456.45 -196.45)"/><path class="cls-6" d="M815.72,473.13H841a5.45,5.45,0,0,0-8.83-5.21,2.83,2.83,0,0,0-4.64-3.09,7.37,7.37,0,0,0-5.08-5.44,7.64,7.64,0,0,0-8.68,4.49Z" transform="translate(-456.45 -196.45)"/><path class="cls-4" d="M840.06,420.27V337.44H804.27l-46.95,67.14L745,422.15V448h63v24.37h32V448h15.37V420.27Zm-29.8,0H778.78l10.38-15.69,21.1-31.9Z" transform="translate(-456.45 -196.45)"/><polygon class="cls-7" points="111.44 140.99 147.25 140.99 147.25 208.13 64.5 208.13 111.44 140.99"/><path class="cls-8" d="M733.78,366.63c0,14.32-1.72,27.23-5.66,37.95h-94c-4-10.72-5.67-23.63-5.67-37.95,0-40.1,13.68-69.34,52.67-69.34S733.78,326.53,733.78,366.63Z" transform="translate(-456.45 -196.45)"/><polygon class="cls-9" points="383.6 140.99 383.6 208.13 300.86 208.13 347.81 140.99 383.6 140.99"/><path class="cls-5" d="M860.59,467.57v5.56H811a4.7,4.7,0,0,1,3.65-3.79,4.93,4.93,0,0,1,4.23,1.46,7.73,7.73,0,0,1,4.53-5,7.17,7.17,0,0,1,4.66,0,3.33,3.33,0,0,1,4.09-4.37,6.59,6.59,0,0,1,12,2,3.31,3.31,0,0,1,6,.87,6.11,6.11,0,0,1,10.44,3.19Z" transform="translate(-456.45 -196.45)"/><path class="cls-10" d="M859.13,473.13h18.32a3.94,3.94,0,0,0-6.39-3.77,2,2,0,0,0-3.35-2.23,5.37,5.37,0,0,0-3.68-3.95,5.52,5.52,0,0,0-6.28,3.25Z" transform="translate(-456.45 -196.45)"/><rect class="cls-11" x="223.41" y="239.87" width="2.58" height="35.91"/><path class="cls-5" d="M706.12,465.14v8.75H628.24a7.38,7.38,0,0,1,5.74-6c3.76-.71,6.47,2.11,6.65,2.28.16-.57,1.8-5.9,7.11-7.78a11.21,11.21,0,0,1,7.33,0,5.24,5.24,0,0,1,6.43-6.88,10.36,10.36,0,0,1,18.8,3.2,5.21,5.21,0,0,1,9.41,1.38,9.6,9.6,0,0,1,16.41,5Z" transform="translate(-456.45 -196.45)"/><path class="cls-10" d="M703.83,473.89h28.8a6.2,6.2,0,0,0-10-5.93,3.22,3.22,0,0,0-5.27-3.52,8.41,8.41,0,0,0-5.78-6.19,8.69,8.69,0,0,0-9.88,5.1Q702.75,468.63,703.83,473.89Z" transform="translate(-456.45 -196.45)"/><path class="cls-12" d="M672.1,254.63a8.64,8.64,0,0,1,3.8.82c2.21,1.95,6.26,6.72,6.07,10.74-.22,4.92-2.08,5.74-2.08,9.24s1.34,10.51,1.34,11.41-14.39.52-14.69.15.16-26.18,1-28.71S669.25,255.18,672.1,254.63Z" transform="translate(-456.45 -196.45)"/><path class="cls-13" d="M668.33,292.67a4,4,0,0,0,3.36,4.8,26.05,26.05,0,0,0,7.48-.13c7.94-1.17,17.37-.38,18.82-3.36s-2.91-6.45-10.68-6.79c-7-.32-15.72-1.76-17.18.23A17.06,17.06,0,0,0,668.33,292.67Z" transform="translate(-456.45 -196.45)"/><path class="cls-13" d="M671,289.67a4,4,0,0,0,1.77,5.58,26.4,26.4,0,0,0,7.19,2.1c7.92,1.24,16.7,4.8,19,2.39s-.87-7-8.18-9.67c-6.61-2.38-14.48-6.35-16.47-4.88A17,17,0,0,0,671,289.67Z" transform="translate(-456.45 -196.45)"/><path class="cls-14" d="M667.87,260.45c-.91-2.19-1-7.9-1.14-10.23a18.55,18.55,0,0,1,.73-7.26c1.13-3.25,3.46-6,7.06-6.26a6,6,0,0,1,3,.44,4.63,4.63,0,0,1,2.16,2.08c.53,1,.64,2.24,1.16,3.29a20.67,20.67,0,0,1,1.24,2.81,10.36,10.36,0,0,0,1,2.54,8.25,8.25,0,0,0,2,2c1.11.84,2.54,1.78,2.37,3.37-.09.8-.54,1.48-.69,2.25a6.07,6.07,0,0,0,.36,2.63,4.7,4.7,0,0,1-1.29,4.3,5.35,5.35,0,0,1-3.81,1.52,11.19,11.19,0,0,1-2.52-.13,3.15,3.15,0,0,1-2-1.38l-4.57-5.5-1.1-1.32a1.19,1.19,0,0,0-.37-.34c-.39-.27-.29,0-.72.14C669.73,255.86,668.75,259.72,667.87,260.45Z" transform="translate(-456.45 -196.45)"/><rect class="cls-12" x="215.51" y="54.1" width="4.65" height="6.54"/><path class="cls-12" d="M676.54,252.58s3.36.29,3.8-.79.67-6.86-1.79-9.46-6.86-2-8.42.41,1.75,9.8,3.69,9.87A17.41,17.41,0,0,0,676.54,252.58Z" transform="translate(-456.45 -196.45)"/><path class="cls-15" d="M680.56,266.47" transform="translate(-456.45 -196.45)"/><path class="cls-16" d="M669.9,254.93" transform="translate(-456.45 -196.45)"/><path class="cls-12" d="M667.51,256.5" transform="translate(-456.45 -196.45)"/><path class="cls-12" d="M698.08,290.72c-5.07-4.51-10.9,19.69-11,26.15s3,.33,6.89-9.21S700.08,292.5,698.08,290.72Z" transform="translate(-456.45 -196.45)"/><path class="cls-17" d="M689,318.29a12.38,12.38,0,0,0,1.42,2.53c1,1.52,1.48,1.41,1.38,1.81s-5.79-1.84-5.79-1.84l1.15-3.21A13.7,13.7,0,0,1,689,318.29Z" transform="translate(-456.45 -196.45)"/><path class="cls-12" d="M698,295.65c-6.65-1.38.38,22.5,3.51,28.15s2.75-1.2,1.37-11.41S700.64,296.19,698,295.65Z" transform="translate(-456.45 -196.45)"/><path class="cls-17" d="M703.89,324.08a12.54,12.54,0,0,0,2.49,1.49c1.66.79,2,.48,2.11.88s-5.94,1.3-5.94,1.3l-.61-3.36A14.14,14.14,0,0,1,703.89,324.08Z" transform="translate(-456.45 -196.45)"/><path class="cls-18" d="M683.08,286.6h16.19l6.9-14.84a1,1,0,1,0-1.85-.86L698,284.55H683.08a1,1,0,0,0,0,2.05Z" transform="translate(-456.45 -196.45)"/><path class="cls-19" d="M673.3,254.12a6.48,6.48,0,0,0-5.58,3.53c-2.23,4.64-2.28,29.27-2,29.77.34.68,15.9.68,16.24-.11s-2.3-10.45-1.45-13.77,2.08-6.09,2-9C682.5,262.16,679.35,254.8,673.3,254.12Z" transform="translate(-456.45 -196.45)"/><path class="cls-17" d="M681.93,287.31s15.08,3.86,17.63,7.43,5.2,26.49,5.2,26.49l-4.35.94c-2.81-5.88-6.22-19.59-7.66-20.1s-15.7-3.46-15.7-3.46l-.23-8.29Z" transform="translate(-456.45 -196.45)"/><path class="cls-20" d="M682,286.91c6-.77,16.56-1.31,17.53,2.4,1.61,6.13-9.1,27.58-9.1,27.58l-3.67-1.28c1.2-10.13,4.12-18.31,3.67-19s-10.79,3.75-19.54,2.72-4.82-11.75-4.82-11.75Z" transform="translate(-456.45 -196.45)"/><path class="cls-12" d="M674.24,258.93a2.58,2.58,0,0,0-2.42,1.22c-2.34,3.65-10,16-7.42,17.89,3,2.21,9.18-9.14,10.54-12.65C676.07,262.47,676.57,259.21,674.24,258.93Z" transform="translate(-456.45 -196.45)"/><path class="cls-12" d="M665.21,275.39a2.74,2.74,0,0,1,2.49-.67c4.46.89,20.6,4.24,21.07,6.19.55,2.25-22.91-1.52-23.43-2.64C664.92,277.4,664.18,276.42,665.21,275.39Z" transform="translate(-456.45 -196.45)"/><path class="cls-12" d="M686.49,280.37c.25-1.39,2.61-.68,3.4-.41,1.29.45,2.47,1.94,2.3,2.46s-3.05-.67-3.19-.59,1.21.8,1,1.27-2.11-.25-2.76-.82A1.82,1.82,0,0,1,686.49,280.37Z" transform="translate(-456.45 -196.45)"/><path class="cls-21" d="M668,256.81s-.36-5.05,2-6.65,7.67-4,9.15-7.73c0,0-.3-5-4.19-4.66s-7.18,5.8-7.27,8S668,256.81,668,256.81Z" transform="translate(-456.45 -196.45)"/><path class="cls-22" d="M717.88,470H690.79l2.52-6.91,2.32-6.36,2.13-5.83,2.33-6.36,2.94-8.08a1.44,1.44,0,0,1,2.6,0l3,8.08,2.32,6.36,2.13,5.83,2.33,6.36Z" transform="translate(-456.45 -196.45)"/><polygon class="cls-23" points="266.84 276.62 228.91 276.62 228.89 273.24 266.86 273.24 266.84 276.62"/><polygon class="cls-24" points="254.45 254.41 241.31 254.41 243.63 248.04 252.12 248.04 254.45 254.41"/><polygon class="cls-24" points="258.9 266.6 236.85 266.6 239.18 260.24 256.58 260.24 258.9 266.6"/><path class="cls-12" d="M623.61,430.75h.1a8.83,8.83,0,0,0,2.74-1v2a2.69,2.69,0,0,1-5.35,0V430l0,0A8.77,8.77,0,0,0,623.61,430.75Z" transform="translate(-456.45 -196.45)"/><path class="cls-12" d="M623.71,430.75h-.1a8.77,8.77,0,0,1-2.47-.83,4.47,4.47,0,0,1-2.69-3.26s-1.41-.61-1.38-1.76,1.24-.84,1.24-.84-1-3.62.9-6.28a3.93,3.93,0,0,1,4.34-1.84h.2a4,4,0,0,1,4.36,1.84c1.92,2.66.89,6.28.89,6.28s1.22-.31,1.25.84-1.37,1.76-1.37,1.76a4.37,4.37,0,0,1-2.43,3.13A8.83,8.83,0,0,1,623.71,430.75Z" transform="translate(-456.45 -196.45)"/><path class="cls-25" d="M635.48,459.41l0,.07a87.46,87.46,0,0,0-11.71,5.94,89.48,89.48,0,0,0-11.71-5.94l0-.07v-8.05h23.37v8.05Z" transform="translate(-456.45 -196.45)"/><path class="cls-12" d="M612.11,459.41l0,.07c-1-.4-2.05-.75-3-1-2.46-2-5.82-4.88-6.2-6.13-.3-1,1-3.83,2.69-7h0l5.49,3.1c-.74,1.35-1.38,2.64-1.26,3a16.27,16.27,0,0,0,2.25,2.86h0Z" transform="translate(-456.45 -196.45)"/><path class="cls-12" d="M635.48,459.41v-5.12h0a16.75,16.75,0,0,0,2.25-2.86c.12-.33-.51-1.62-1.26-3l5.5-3.1h0c1.68,3.13,3,6,2.69,7-.38,1.24-3.73,4.13-6.18,6.12-1,.28-2,.64-3,1.05Z" transform="translate(-456.45 -196.45)"/><path class="cls-20" d="M623.71,451.36H613.37v-.2c.12-2-.15-6.3-.15-6.3s-1.17,1.86-2.14,3.6l-5.49-3.1h0c1.71-3.22,3.81-6.74,4.91-8.77,2.18-4,10.64-4.81,10.64-4.81a2.69,2.69,0,0,0,5.35,0s8.48.79,10.65,4.8c1.1,2,3.2,5.55,4.91,8.77h0l-5.5,3.1c-1-1.74-2.14-3.6-2.14-3.6s-.26,4.28-.15,6.3v.2h-10.5Z" transform="translate(-456.45 -196.45)"/><path class="cls-26" d="M617.57,422.61a2.16,2.16,0,0,1-.34-1.26,2,2,0,0,1,.7-1.4,1,1,0,0,1-.06-.71.84.84,0,0,1,.59-.62,2,2,0,0,1,.16-1.44,1.26,1.26,0,0,1,1.54-.57,2,2,0,0,1,1-1.69,1.5,1.5,0,0,1,1.54.14.78.78,0,0,1,.54-.49.63.63,0,0,1,.64.31.64.64,0,0,1,.65-.31.78.78,0,0,1,.53.49,1.51,1.51,0,0,1,1.54-.14,2,2,0,0,1,1,1.69,1.25,1.25,0,0,1,1.54.57,2,2,0,0,1,.16,1.44.84.84,0,0,1,.59.62,1,1,0,0,1-.06.71,2,2,0,0,1,.7,1.4,2.09,2.09,0,0,1-.34,1.26.79.79,0,0,1,.24.83.62.62,0,0,1-.6.48.84.84,0,0,1-.26.21.59.59,0,0,1-.22.08.78.78,0,0,1-.4-.35,1.26,1.26,0,0,1,0-1,2.13,2.13,0,0,1-.5-1.56,1.86,1.86,0,0,1,.14-.47,1.72,1.72,0,0,1-.94-1.07,1.87,1.87,0,0,1-.06-.59.49.49,0,0,1-.59,0,.75.75,0,0,1-.21-.35,1.53,1.53,0,0,1-1,.24,1.73,1.73,0,0,1-1-.46s-.13.52-.89.53h0a.85.85,0,0,1-.89-.53,1.69,1.69,0,0,1-1,.46,1.53,1.53,0,0,1-1-.24.75.75,0,0,1-.21.35.49.49,0,0,1-.59,0,1.87,1.87,0,0,1-.06.59,1.67,1.67,0,0,1-.94,1.07,1.53,1.53,0,0,1,.14.47,2.19,2.19,0,0,1-.49,1.56,1.31,1.31,0,0,1,0,1,.83.83,0,0,1-.41.35.66.66,0,0,1-.22-.08.84.84,0,0,1-.26-.21.62.62,0,0,1-.6-.48A.79.79,0,0,1,617.57,422.61Z" transform="translate(-456.45 -196.45)"/><path class="cls-27" d="M633.8,473.3s-28.1-2.49-30.94-8.61c-2.1-4.51,2.35-8.11,7.47-6.33s23.54,10.81,23.54,10.81Z" transform="translate(-456.45 -196.45)"/><path class="cls-20" d="M635.6,469.89v3.64s4.81.32,5.12-.22.68-2.48-.54-3.41S636,468.93,635.6,469.89Z" transform="translate(-456.45 -196.45)"/><polygon class="cls-12" points="177.3 272.72 179.18 273.42 179.18 277.04 177.23 276.85 177.3 272.72"/><path class="cls-28" d="M613.78,473.3s28.1-2.49,31-8.61c2.09-4.51-2.35-8.11-7.47-6.33s-23.55,10.81-23.55,10.81Z" transform="translate(-456.45 -196.45)"/><polygon class="cls-12" points="157.32 272.72 155.44 273.42 155.44 277.04 157.4 276.85 157.32 272.72"/><path class="cls-20" d="M611.93,469.89v3.64s-4.81.32-5.12-.22-.68-2.48.54-3.41S611.55,468.93,611.93,469.89Z" transform="translate(-456.45 -196.45)"/><path class="cls-4" d="M466.67,475.77c11.28,0,14,15.42,17.89,23.23,5.62,11.21,15.75,20.11,28.69,21,8.35.56,16.61-2.19,25-2.1,42,.43,61.83,52.54,103.8,52,25.81-.34,48.08-15.35,70.18-27.2,11.35-6.09,23.18-11.66,35.9-14.18,16.1-3.18,32.12-.34,48.18,1.71,3.73.48,7.47.92,11.23,1.23,32.78,2.63,82.43-13,85.9-51.78.06-.74.1-1.48.12-2.23s0-1.42,0-2.13Z" transform="translate(-456.45 -196.45)"/><path class="cls-4" d="M456.45,477h452.8a1.94,1.94,0,1,0,0-3.88H456.45" transform="translate(-456.45 -196.45)"/><path class="cls-12" d="M875.83,445.19c5.58-2.22,3.62,18.39,1.87,24.13s-2.62,2.09-3.21-7.71S873.63,446.06,875.83,445.19Z" transform="translate(-456.45 -196.45)"/><path class="cls-12" d="M866.93,444.69c5.77-1.4,1.4,18.75-.93,24.21s-2.53,1.71-2.1-8.09S864.66,445.25,866.93,444.69Z" transform="translate(-456.45 -196.45)"/><path class="cls-12" d="M874.92,420.43a3.76,3.76,0,0,1,4.7,2.88,52.62,52.62,0,0,1,.76,9c-.1,7.49.21,14.41-2.51,15.95s-6.23-2.37-7-9.65c-.7-6.59-2.57-14.68-.78-16.17A16,16,0,0,1,874.92,420.43Z" transform="translate(-456.45 -196.45)"/><path class="cls-12" d="M870,420.67a3.82,3.82,0,0,1,3.83,3.81,56.82,56.82,0,0,1-.68,8.85c-1.22,7.23-2,14-4.67,14.88s-5.29-3.66-4.89-10.87c.36-6.53-.11-14.76,1.73-15.8A13.22,13.22,0,0,1,870,420.67Z" transform="translate(-456.45 -196.45)"/><path class="cls-29" d="M863.12,414.26s.21,29.32.36,31.94-.15,21.27-.15,21.27l4.08-.09s7-39.95,6.55-46.46S863.12,414.26,863.12,414.26Z" transform="translate(-456.45 -196.45)"/><path class="cls-19" d="M881.42,423.84s-.95,18.7-1.14,21.91-1.4,21.73-1.4,21.73h-4.13s-2.68-17.12-3-19.69c-.49-3.47-3-21.17-3.18-31.09S881.42,423.84,881.42,423.84Z" transform="translate(-456.45 -196.45)"/><path class="cls-12" d="M874.13,386.09a2.71,2.71,0,0,1-.83,2.76c-3.41,3.14-15,13.49-17.53,11.14-2.95-2.75,7.9-11.32,11.36-13.4C870,384.85,873.37,383.71,874.13,386.09Z" transform="translate(-456.45 -196.45)"/><path class="cls-12" d="M859,398.65a2.64,2.64,0,0,0-1.07-2.22c-3.37-2.65-15.66-12.15-17.31-11.25-1.92,1,15.17,15.55,16.28,15.22C857.8,400.14,858.94,400.05,859,398.65Z" transform="translate(-456.45 -196.45)"/><path class="cls-12" d="M836.59,382.21c.35-.48,2.69,1.43,3.43,1.91a.81.81,0,0,0,.21.11s0-.05,0-.1c-.14-.33-1.1-1.42-.72-1.83s2.25,1,2.91,2a1.67,1.67,0,0,1,.12.16,2.3,2.3,0,0,1,.18,2.6c-.86,1.56-3.44-.27-4.3-.92a5.6,5.6,0,0,1-1.62-2.22C836.49,383.14,836.39,382.47,836.59,382.21Z" transform="translate(-456.45 -196.45)"/><path class="cls-17" d="M867.3,385.46s-9.68,7.37-10.58,7.46-10.74-6-10.74-6l-2.55,3.27s10.74,10.84,13.11,11,8.68-3.68,8.68-3.68Z" transform="translate(-456.45 -196.45)"/><path class="cls-28" d="M865.81,365.53a2.79,2.79,0,0,0-.87.61,1.53,1.53,0,0,0-.39.58,1.84,1.84,0,0,0-.08.74c0,.79.24,2.28.9,2.8.3-.32,1.16-.25,1.56-.25.78,0,1.78.17,2.15,1,.49,1.08-.22,2,.22,2.58.73,1,2.08-2.2,2.78-2s1.29,1.06.36,2.53c-.75,1.18.48,2.05,1.44,2.5a7.15,7.15,0,0,0,1.47.52,1.46,1.46,0,0,0,1.53-1.28c.08-.4,0-.83.11-1.23.2-.71.93-1.14,1.24-1.81a3.33,3.33,0,0,0,.19-1.57,2.42,2.42,0,0,0-.15-.93,2.55,2.55,0,0,0-.82-.88l-1.51-1.17a2.67,2.67,0,0,1-.46-.43,5,5,0,0,1-.43-.69,3,3,0,0,0-3.18-1.38c-.79.17-1.57.67-2.35.45a5.2,5.2,0,0,1-1.13-.62A3,3,0,0,0,865.81,365.53Z" transform="translate(-456.45 -196.45)"/><path class="cls-12" d="M865.5,370.15l0,.06,0,0s-2,8.58.39,10.11a4,4,0,0,0,4.29.23l.38,3.6,5.67-2.22-.61-4.67.06-.09h-.06s-4.5-1-3.18-3.09c.93-1.47.32-2.3-.36-2.53s-2.05,3-2.78,2c-.44-.62.27-1.5-.22-2.58C868.4,369.51,865.5,370.15,865.5,370.15Z" transform="translate(-456.45 -196.45)"/><path class="cls-30" d="M863.28,414.88l1.44.26c.25-2.72.77-7.41,1.87-15.25,1.7-12.13,9.35-16.6,11.77-17.75a10,10,0,0,0-2.25-1.4,10,10,0,0,1-5.77,2.34v0a8.7,8.7,0,0,0-.85.44,70.69,70.69,0,0,0-3.11,9.19C865.29,398.24,863.93,409.35,863.28,414.88Z" transform="translate(-456.45 -196.45)"/><path class="cls-20" d="M861.56,409.65c0,3.28.22,5.92,1.38,8.26.24-2.16,2-18.18,3.44-25.18a70.69,70.69,0,0,1,3.11-9.19,12.9,12.9,0,0,0-4.25,3.95C863.19,390.61,861.56,404.42,861.56,409.65Z" transform="translate(-456.45 -196.45)"/><path class="cls-20" d="M866.59,399.89c-1.75,12.54-2.23,18.81-2.32,20.07a13.5,13.5,0,0,0,1.9,1.87c4,3.34,15.58,2.77,16.22,2.06s-2.2-5.95-2.13-11,1.56-12.33,2.26-21.61a9.52,9.52,0,0,0-4.16-9.17C875.94,383.29,868.29,387.76,866.59,399.89Z" transform="translate(-456.45 -196.45)"/><path class="cls-12" d="M880,385.31a2.67,2.67,0,0,1,1.3,2.57c-.31,4.62-1.61,20.12-5,20.15-4,0-2.07-13.66-1-17.55C876.17,387.24,877.83,384.1,880,385.31Z" transform="translate(-456.45 -196.45)"/><path class="cls-12" d="M876.76,404.82a2.66,2.66,0,0,0-2.42-.49c-4.14,1.1-19.13,5.18-19.41,7-.33,2.15,21.55-2.74,22-3.83C877.2,406.7,877.82,405.73,876.76,404.82Z" transform="translate(-456.45 -196.45)"/><path class="cls-17" d="M881.62,385.35a3.22,3.22,0,0,0-4-.57c-1.16.69-2.49,2.26-3.12,5.78-1.28,7-1.09,12.65-1.51,13s-14.45,5-14.45,5l1,3.9s16.9-1,18.84-4.13,3.35-10.86,3.82-15.72C882.6,389,882.9,386.72,881.62,385.35Z" transform="translate(-456.45 -196.45)"/><path class="cls-31" d="M863.07,418.17" transform="translate(-456.45 -196.45)"/><path class="cls-28" d="M863.49,468.68a15.18,15.18,0,0,1-2.69,2.57c-1.88,1.45-2.37,1.14-2.41,1.68s7.84,0,7.84,0v-4.4A22.87,22.87,0,0,0,863.49,468.68Z" transform="translate(-456.45 -196.45)"/><path class="cls-28" d="M877.94,468.33a4.47,4.47,0,0,0,.67,2.49c1.11,1.9,1.11,1.52.86,2.21s-4.77.11-4.77.11l.4-4.85A19.1,19.1,0,0,1,877.94,468.33Z" transform="translate(-456.45 -196.45)"/><polyline class="cls-32" points="406.31 218.33 406.83 218.43 408.26 218.69 408.62 218.75"/><path class="cls-30" d="M859.26,407.37l-2.48-10.08L842.64,396l3.48,12.91,14.15,2.57Zm-9.4-3.8a1.15,1.15,0,0,1,.5-1.48c.46-.13,1,.31,1.2,1s0,1.33-.49,1.47S850.06,404.25,849.86,403.57Z" transform="translate(-456.45 -196.45)"/><path class="cls-33" d="M850.36,402.09a1.15,1.15,0,0,0-.5,1.48c.2.68.74,1.11,1.21,1s.69-.79.49-1.47S850.82,402,850.36,402.09Z" transform="translate(-456.45 -196.45)"/><polygon class="cls-33" points="402.81 210.91 403.81 215.04 411.79 212.04 402.81 210.91"/><path class="cls-34" d="M860.27,411.48l-14.13-2.56v.67l14.13,2.54s0-.66,0-.65v.65l8-3v-.64" transform="translate(-456.45 -196.45)"/><path class="cls-12" d="M857.8,411.79l-.3-.06-.4-.08a1.07,1.07,0,0,1-.38-.1l-.11-.08-.14-.05c-.19-.06-.43-.06-.57-.22a2.23,2.23,0,0,1-.29-.65l0-.05a2,2,0,0,0-.87-.86,1.69,1.69,0,0,0-1.61.2.75.75,0,0,0-.16,1,2.33,2.33,0,0,0,.83,1.14,3.07,3.07,0,0,0,1.28.45,3.84,3.84,0,0,0,.76,0,4.82,4.82,0,0,0,.75-.1,3.25,3.25,0,0,0,.68-.18,1.72,1.72,0,0,0,.47-.28Z" transform="translate(-456.45 -196.45)"/><path class="cls-20" d="M499.31,427.91c5.65.34,7.57,5.95,8,7.69l6.26,6.26V421.77c-4.5-4.48-1-11.2-1-11.2,5.72,4.07,2.67,9.51,1.61,11.07v8.13l5.57-5.57c.5-6.32,7.88-8,7.88-8,.61,7-5.51,8.2-7.38,8.41l-6,6,0-.05V461.8h-.64V442.67l-.05.05L507,436.14C499.21,436.19,499.31,427.91,499.31,427.91Z" transform="translate(-456.45 -196.45)"/><path class="cls-4" d="M510.79,460h6.69a3.27,3.27,0,0,1,3.27,3.27v10.1a0,0,0,0,1,0,0H507.52a0,0,0,0,1,0,0v-10.1A3.27,3.27,0,0,1,510.79,460Z" transform="translate(571.82 737) rotate(180)"/><path class="cls-19" d="M531.55,449.67l-3.31,3v-3.23c2.51-1.25,8-5.63,5.14-14.45,0,0-10,3.83-6.42,14.46v4.64L524.2,451c-.37-2.39-2.63-8.39-11-8.2,0,0,.67,9.17,10.17,9.18l3.6,4v6.15h1.28v-7.76l4.13-3.76c8.43.58,9.68-7.55,9.68-7.55C534.55,442.33,532.07,447.52,531.55,449.67Z" transform="translate(-456.45 -196.45)"/><polygon class="cls-4" points="77.4 277.03 65.03 277.03 62.47 262.73 79.96 262.73 77.4 277.03"/><path class="cls-20" d="M899.85,421.25a57.76,57.76,0,0,1-1.43-9.22l0-.53-.37.38a6.44,6.44,0,0,0-1.64,4.16c0,.66,0,1.25.08,1.82a8,8,0,0,1-.51,4.29c-1,2.32-1.69,4.35-.34,7.52l.39.91c1,2.37,1.45,3.35,1.06,5.24a6.42,6.42,0,0,0,3.6,6.55c-.1,4.3-.23,7.88-.23,8h.45c0-.16.57-16.37.24-21.4A58.36,58.36,0,0,0,899.85,421.25Z" transform="translate(-456.45 -196.45)"/><path class="cls-20" d="M887.54,422.54l-.23-.19-.12.28a4.86,4.86,0,0,0,.56,4.66,6.14,6.14,0,0,1,1,3.21,9,9,0,0,0,1.55,4.57,10.44,10.44,0,0,0,2.75,2.47c1,.71,1.77,1.21,2,2.47,0,.23.06.44.08.65.26,2,.39,3.1,3.3,4.08.84,3.28,1.23,5.56,1.24,5.63l.45-.07C900.05,450.09,896.53,429.58,887.54,422.54Z" transform="translate(-456.45 -196.45)"/><path class="cls-20" d="M907.47,428.23l-.07-.32-.27.18c-6.92,4.45-5.79,21.32-5.74,22h.22l.23,0s-.11-1.61-.08-3.88c.22-.33,1.07-1.62,1.7-2.62a2.31,2.31,0,0,0,.2-1.9,4.73,4.73,0,0,1,0-2.09,3.77,3.77,0,0,1,1-1.94,5.81,5.81,0,0,0,1-1.66,5.36,5.36,0,0,0,.36-2.34,3,3,0,0,1,.59-2.23A3.88,3.88,0,0,0,907.47,428.23Z" transform="translate(-456.45 -196.45)"/><polygon class="cls-4" points="448.37 276.65 440.37 276.65 438.16 253.19 450.58 253.19 448.37 276.65"/><path class="cls-35" d="M791.74,226.48a9,9,0,0,0-1.12-3.84l1.11-.62a10.27,10.27,0,0,0-2.15-2.68l-.85,1a8.91,8.91,0,0,0-3.51-1.93l.35-1.22h0a10.5,10.5,0,0,0-2.8-.39l-.61,0,.08,1.27a9,9,0,0,0-3.84,1.12l-.62-1.11a10.27,10.27,0,0,0-2.68,2.15l.95.85a8.94,8.94,0,0,0-1.93,3.5l-1.22-.35v0a10.39,10.39,0,0,0-.39,2.8c0,.2,0,.39,0,.59l1.27-.07a9,9,0,0,0,1.12,3.84l-1.12.62a10.48,10.48,0,0,0,2.15,2.68l.85-.95a8.94,8.94,0,0,0,3.5,1.93l-.35,1.22h0a10.39,10.39,0,0,0,2.8.39l.61,0-.07-1.27a9,9,0,0,0,3.84-1.13l.62,1.12a10.31,10.31,0,0,0,2.68-2.16l-1-.84a9.11,9.11,0,0,0,1.93-3.51l1.22.35h0A10.5,10.5,0,0,0,793,227c0-.21,0-.41,0-.61Zm-11.21,8.42h0l.06-.22Zm7.47-6.4A5.44,5.44,0,0,1,777.32,227a5.52,5.52,0,0,1,.21-1.49,5.44,5.44,0,0,1,10.47,3Z" transform="translate(-456.45 -196.45)"/><path class="cls-35" d="M761.74,310.48a9,9,0,0,0-1.12-3.84l1.11-.62a10.27,10.27,0,0,0-2.15-2.68l-.85,1a8.91,8.91,0,0,0-3.51-1.93l.35-1.22h0a10.5,10.5,0,0,0-2.8-.39l-.61,0,.08,1.27a9,9,0,0,0-3.84,1.12l-.62-1.11a10.27,10.27,0,0,0-2.68,2.15l.95.85a8.94,8.94,0,0,0-1.93,3.5l-1.22-.35v0a10.39,10.39,0,0,0-.39,2.8c0,.2,0,.39,0,.59l1.27-.07a9,9,0,0,0,1.12,3.84l-1.12.62a10.48,10.48,0,0,0,2.15,2.68l.85-.95a8.94,8.94,0,0,0,3.5,1.93l-.35,1.22h0a10.39,10.39,0,0,0,2.8.39l.61,0-.07-1.27a9,9,0,0,0,3.84-1.13l.62,1.12a10.31,10.31,0,0,0,2.68-2.16l-1-.84a9.11,9.11,0,0,0,1.93-3.51l1.22.35h0A10.5,10.5,0,0,0,763,311c0-.21,0-.41,0-.61Zm-11.21,8.42h0l.06-.22Zm7.47-6.4A5.44,5.44,0,0,1,747.32,311a5.52,5.52,0,0,1,.21-1.49,5.44,5.44,0,0,1,10.47,3Z" transform="translate(-456.45 -196.45)"/><path class="cls-36" d="M545.42,244.89a5.44,5.44,0,0,0-.67-2.28l.66-.37a6,6,0,0,0-1.28-1.6l-.51.57a5.26,5.26,0,0,0-2.09-1.15l.21-.73h0a6,6,0,0,0-1.67-.23h-.36l0,.75a5.38,5.38,0,0,0-2.29.67l-.37-.66a6,6,0,0,0-1.6,1.28l.57.5a5.4,5.4,0,0,0-1.15,2.09l-.73-.21v0a6,6,0,0,0-.23,1.67c0,.12,0,.23,0,.35l.76,0a5.23,5.23,0,0,0,.66,2.29l-.66.36a6,6,0,0,0,1.28,1.6l.5-.56a5.4,5.4,0,0,0,2.09,1.15l-.21.73h0a6.06,6.06,0,0,0,1.67.23h.37l-.05-.76a5.24,5.24,0,0,0,2.29-.67l.37.67a6.22,6.22,0,0,0,1.6-1.29l-.57-.5a5.26,5.26,0,0,0,1.14-2.09l.73.2h0a6.07,6.07,0,0,0,.24-1.67c0-.12,0-.24,0-.36Zm-6.68,5h0l0-.13Zm4.45-3.81a3.25,3.25,0,0,1-3.12,2.36,3.09,3.09,0,0,1-.89-.13,3.24,3.24,0,0,1-2.36-3.11,3,3,0,0,1,.13-.89,3.23,3.23,0,0,1,3.11-2.36,3.41,3.41,0,0,1,.89.12,3.25,3.25,0,0,1,2.36,3.12A3.46,3.46,0,0,1,543.19,246.1Z" transform="translate(-456.45 -196.45)"/><path class="cls-35" d="M498.38,317a8.91,8.91,0,0,0-1.12-3.84l1.11-.62a10.27,10.27,0,0,0-2.15-2.68l-.85.95a9.07,9.07,0,0,0-3.5-1.93l.34-1.22h0a10.06,10.06,0,0,0-2.8-.39h-.6l.07,1.28a9,9,0,0,0-3.84,1.12l-.62-1.12a10.48,10.48,0,0,0-2.68,2.15l.95.85a9,9,0,0,0-1.93,3.51l-1.22-.35v0a10.39,10.39,0,0,0-.39,2.8c0,.2,0,.4,0,.59l1.27-.07a9,9,0,0,0,1.12,3.84l-1.11.62a10.24,10.24,0,0,0,2.14,2.68l.85-.95a9.06,9.06,0,0,0,3.51,1.94l-.35,1.22h0a10.39,10.39,0,0,0,2.8.39l.62,0-.08-1.28a9,9,0,0,0,3.84-1.12l.62,1.11a10.27,10.27,0,0,0,2.68-2.15l-1-.85a8.91,8.91,0,0,0,1.93-3.51l1.22.35h0a10,10,0,0,0,.39-2.8c0-.2,0-.41,0-.61Zm-11.21,8.42h0l.07-.22Zm7.47-6.4a5.45,5.45,0,0,1-5.23,4,5.52,5.52,0,0,1-1.49-.21,5.44,5.44,0,0,1-4-5.23,5.52,5.52,0,0,1,.21-1.49,5.44,5.44,0,0,1,10.68,1.48A6,6,0,0,1,494.64,319Z" transform="translate(-456.45 -196.45)"/><path class="cls-35" d="M722.19,226.33a4.51,4.51,0,0,0-.58-2l.57-.32a5.23,5.23,0,0,0-1.1-1.38l-.44.49a4.59,4.59,0,0,0-1.8-1l.18-.63h0a5.11,5.11,0,0,0-1.44-.2h-.31l0,.65a4.64,4.64,0,0,0-2,.58L715,222a5.23,5.23,0,0,0-1.38,1.1l.49.44a4.59,4.59,0,0,0-1,1.8l-.63-.18h0a5.11,5.11,0,0,0-.2,1.44c0,.1,0,.2,0,.31l.65,0a4.63,4.63,0,0,0,.57,2l-.57.32a5.62,5.62,0,0,0,1.1,1.38l.44-.49a4.59,4.59,0,0,0,1.8,1l-.18.63h0a5.5,5.5,0,0,0,1.44.2h.32l0-.66a4.51,4.51,0,0,0,2-.58l.32.57a5.19,5.19,0,0,0,1.37-1.1l-.49-.44a4.46,4.46,0,0,0,1-1.8l.63.18h0a5,5,0,0,0,.2-1.43c0-.11,0-.21,0-.32Zm-5.76,4.33h0l0-.12Zm3.84-3.29a2.8,2.8,0,0,1-2.69,2,2.91,2.91,0,0,1-.77-.1,2.8,2.8,0,0,1-2-2.69,2.84,2.84,0,0,1,.1-.76,2.79,2.79,0,0,1,2.69-2,2.61,2.61,0,0,1,.77.11,2.79,2.79,0,0,1,2,2.69A2.89,2.89,0,0,1,720.27,227.37Z" transform="translate(-456.45 -196.45)"/><path class="cls-35" d="M596.88,237.53a4.79,4.79,0,0,0-.58-2l.57-.32a5.62,5.62,0,0,0-1.1-1.38l-.44.49a4.59,4.59,0,0,0-1.8-1l.18-.63h0a5.55,5.55,0,0,0-1.44-.2H592l0,.65a4.84,4.84,0,0,0-2,.58l-.31-.57a5.07,5.07,0,0,0-1.38,1.1l.49.44a4.6,4.6,0,0,0-1,1.8l-.62-.18h0a5.55,5.55,0,0,0-.2,1.44c0,.1,0,.21,0,.31l.66,0a4.63,4.63,0,0,0,.57,2l-.57.32a5.23,5.23,0,0,0,1.1,1.38l.44-.49a4.46,4.46,0,0,0,1.8,1l-.18.63h0a5.55,5.55,0,0,0,1.44.2h.32l0-.66a4.47,4.47,0,0,0,2-.58l.32.58a5.11,5.11,0,0,0,1.38-1.11l-.49-.44a4.59,4.59,0,0,0,1-1.8l.63.18h0a5.55,5.55,0,0,0,.2-1.44c0-.11,0-.21,0-.32Zm-5.76,4.33h0l0-.11Zm3.83-3.29a2.81,2.81,0,0,1-2.69,2,2.91,2.91,0,0,1-.76-.11,2.81,2.81,0,0,1-2-2.69,2.85,2.85,0,0,1,.11-.76,2.81,2.81,0,0,1,2.69-2,2.85,2.85,0,0,1,.76.11,2.81,2.81,0,0,1,2,2.69A2.85,2.85,0,0,1,595,238.57Z" transform="translate(-456.45 -196.45)"/><path class="cls-35" d="M614.26,308.67a4.51,4.51,0,0,0-.58-2l.58-.32a5.44,5.44,0,0,0-1.11-1.38l-.44.49a4.72,4.72,0,0,0-1.8-1l.18-.63h0a5.5,5.5,0,0,0-1.44-.2h-.31l0,.65a4.79,4.79,0,0,0-2,.58l-.32-.57a5.4,5.4,0,0,0-1.38,1.1l.49.44a4.59,4.59,0,0,0-1,1.8l-.63-.18h0a5.16,5.16,0,0,0-.2,1.44c0,.1,0,.21,0,.31l.65,0a4.51,4.51,0,0,0,.58,2l-.58.32a5.27,5.27,0,0,0,1.11,1.38l.43-.49a4.68,4.68,0,0,0,1.8,1l-.18.62h0a5.5,5.5,0,0,0,1.44.2H610l0-.66a4.51,4.51,0,0,0,2-.58l.32.58a5.44,5.44,0,0,0,1.38-1.11l-.49-.44a4.72,4.72,0,0,0,1-1.8l.62.18h0a5.16,5.16,0,0,0,.2-1.44c0-.11,0-.21,0-.32ZM608.5,313h0l0-.11Zm3.84-3.29a2.81,2.81,0,0,1-2.69,2,3,3,0,0,1-.77-.11,2.8,2.8,0,0,1-2-2.69,2.5,2.5,0,0,1,.11-.76,2.79,2.79,0,0,1,2.68-2,2.92,2.92,0,0,1,.77.11,2.8,2.8,0,0,1,2,2.69A2.84,2.84,0,0,1,612.34,309.71Z" transform="translate(-456.45 -196.45)"/><path class="cls-35" d="M825.42,299.56a3.76,3.76,0,0,0-.47-1.62l.47-.27a4.71,4.71,0,0,0-.91-1.13l-.36.4a3.88,3.88,0,0,0-1.48-.81l.14-.52h0a4.43,4.43,0,0,0-1.19-.16h-.25l0,.54a3.81,3.81,0,0,0-1.62.48l-.26-.47a4.32,4.32,0,0,0-1.14.9l.41.36a3.84,3.84,0,0,0-.82,1.48l-.52-.14h0a4.36,4.36,0,0,0-.16,1.18V300l.54,0a3.76,3.76,0,0,0,.47,1.62l-.47.26a4.36,4.36,0,0,0,.91,1.14l.36-.4a3.81,3.81,0,0,0,1.48.81l-.15.52h0a4.5,4.5,0,0,0,1.19.17h.26l0-.54a3.8,3.8,0,0,0,1.62-.47l.26.47a4.52,4.52,0,0,0,1.13-.91l-.4-.36a3.82,3.82,0,0,0,.81-1.48l.52.14h0a4.43,4.43,0,0,0,.17-1.18c0-.09,0-.18,0-.26Zm-4.74,3.56h0l0-.1Zm3.16-2.71a2.3,2.3,0,0,1-4.51-.62,2.27,2.27,0,0,1,.08-.63,2.3,2.3,0,0,1,2.21-1.67,2.72,2.72,0,0,1,.63.08,2.32,2.32,0,0,1,1.68,2.22A2.27,2.27,0,0,1,823.84,300.41Z" transform="translate(-456.45 -196.45)"/><path class="cls-35" d="M903.09,334.89a3.81,3.81,0,0,0-.48-1.62l.47-.26a4.16,4.16,0,0,0-.91-1.14l-.35.41a3.94,3.94,0,0,0-1.49-.82l.15-.51h0a4,4,0,0,0-1.18-.17H899l0,.54a3.84,3.84,0,0,0-1.63.47l-.26-.47a4.27,4.27,0,0,0-1.13.91l.4.36a3.68,3.68,0,0,0-.81,1.48l-.52-.15h0a4.37,4.37,0,0,0-.17,1.18,2,2,0,0,0,0,.25l.54,0A3.84,3.84,0,0,0,896,337l-.47.26a4.12,4.12,0,0,0,.91,1.13l.36-.4a3.83,3.83,0,0,0,1.48.82l-.15.51h0a4.41,4.41,0,0,0,1.18.16h.27l0-.53a4,4,0,0,0,1.63-.48l.26.47a4.31,4.31,0,0,0,1.13-.91l-.4-.36a3.68,3.68,0,0,0,.81-1.48l.52.15h0a4.36,4.36,0,0,0,.16-1.18v-.26Zm-4.74,3.56h0l0-.09Zm3.16-2.7a2.31,2.31,0,0,1-2.22,1.67,2.27,2.27,0,0,1-.62-.09,2.29,2.29,0,0,1-1.68-2.21,2.34,2.34,0,0,1,.09-.63,2.3,2.3,0,0,1,4.51.63A2.72,2.72,0,0,1,901.51,335.75Z" transform="translate(-456.45 -196.45)"/><path class="cls-37" d="M793.2,351a5.72,5.72,0,0,0-.71-2.41l.7-.39a6.57,6.57,0,0,0-1.35-1.68l-.53.6a5.65,5.65,0,0,0-2.19-1.21l.21-.76h0a6.22,6.22,0,0,0-1.75-.25h-.38l0,.8a5.79,5.79,0,0,0-2.41.7l-.38-.7a6.44,6.44,0,0,0-1.68,1.35l.59.53a5.69,5.69,0,0,0-1.21,2.2l-.76-.22h0a6.72,6.72,0,0,0-.24,1.76c0,.12,0,.25,0,.37l.8-.05a5.57,5.57,0,0,0,.7,2.41l-.7.39a6.75,6.75,0,0,0,1.34,1.68l.54-.6a5.53,5.53,0,0,0,2.19,1.21l-.22.77h0a6.34,6.34,0,0,0,1.76.25l.38,0-.05-.79a5.58,5.58,0,0,0,2.41-.71l.39.7a6.79,6.79,0,0,0,1.68-1.35l-.6-.53a5.6,5.6,0,0,0,1.2-2.2l.77.22h0a6.32,6.32,0,0,0,.24-1.76c0-.13,0-.25,0-.38Zm-7,5.27h0l0-.14Zm4.67-4a3.41,3.41,0,0,1-6.69-.92,3.72,3.72,0,0,1,.13-.93,3.42,3.42,0,0,1,3.28-2.48,3.31,3.31,0,0,1,.93.13A3.4,3.4,0,0,1,791,351.3,3.31,3.31,0,0,1,790.85,352.23Z" transform="translate(-456.45 -196.45)"/><path class="cls-35" d="M658.49,259.35a4.33,4.33,0,1,1-4.32-4.33A4.32,4.32,0,0,1,658.49,259.35Z" transform="translate(-456.45 -196.45)"/><path class="cls-35" d="M749.78,199.43a2.71,2.71,0,1,1-2.71-2.71A2.7,2.7,0,0,1,749.78,199.43Z" transform="translate(-456.45 -196.45)"/><path class="cls-35" d="M842.2,265.8a2.7,2.7,0,1,1-2.7-2.71A2.7,2.7,0,0,1,842.2,265.8Z" transform="translate(-456.45 -196.45)"/><path class="cls-35" d="M855.2,327.46a2.7,2.7,0,1,1-2.7-2.7A2.7,2.7,0,0,1,855.2,327.46Z" transform="translate(-456.45 -196.45)"/><circle class="cls-35" cx="273.67" cy="62.9" r="2.7"/><path class="cls-35" d="M624.7,210.24a2.7,2.7,0,1,1-2.7-2.7A2.7,2.7,0,0,1,624.7,210.24Z" transform="translate(-456.45 -196.45)"/><path class="cls-35" d="M523.66,290.73A2.71,2.71,0,1,1,521,288,2.71,2.71,0,0,1,523.66,290.73Z" transform="translate(-456.45 -196.45)"/><line class="cls-35" x1="230.6" y1="5.77" x2="230.6" y2="10.99"/><line class="cls-35" x1="233.22" y1="8.38" x2="227.99" y2="8.38"/><line class="cls-35" x1="74.85" y1="159" x2="74.85" y2="164.22"/><line class="cls-35" x1="77.47" y1="161.61" x2="72.24" y2="161.61"/><line class="cls-35" x1="162.11" y1="54.12" x2="162.11" y2="59.35"/><line class="cls-35" x1="164.72" y1="56.73" x2="159.49" y2="56.73"/><line class="cls-35" x1="102.61" y1="112.62" x2="102.61" y2="117.85"/><line class="cls-35" x1="105.22" y1="115.23" x2="99.99" y2="115.23"/><line class="cls-35" x1="45.04" y1="59.06" x2="45.04" y2="64.29"/><line class="cls-35" x1="47.66" y1="61.67" x2="42.43" y2="61.67"/><rect class="cls-38" x="274.8" y="224.21" width="0.88" height="52"/><rect class="cls-28" x="273.46" y="260.29" width="3.64" height="2.08"/><rect class="cls-28" x="301.44" y="260.29" width="3.64" height="2.08"/><rect class="cls-28" x="302.77" y="224.21" width="0.88" height="52"/><rect class="cls-22" x="269.91" y="225.94" width="38.38" height="7.78" rx="0.84"/><path class="cls-38" d="M734.78,422.39l-5.65,7.79H727.2a.84.84,0,0,1-.83-.84v-.51l4.67-6.44Z" transform="translate(-456.45 -196.45)"/><polygon class="cls-38" points="285.97 225.94 280.32 233.72 276.57 233.72 282.23 225.94 285.97 225.94"/><polygon class="cls-38" points="293.61 225.94 287.96 233.72 284.22 233.72 289.87 225.94 293.61 225.94"/><polygon class="cls-38" points="301.25 225.94 295.6 233.72 291.86 233.72 297.51 225.94 301.25 225.94"/><path class="cls-38" d="M764.74,423.23h0l-5,6.95H756l5.65-7.79h2.3A.84.84,0,0,1,764.74,423.23Z" transform="translate(-456.45 -196.45)"/><rect class="cls-22" x="269.91" y="253.23" width="38.38" height="7.78" rx="0.84"/><path class="cls-38" d="M734.78,449.69l-5.65,7.78H727.2a.84.84,0,0,1-.83-.84v-.51l4.67-6.43Z" transform="translate(-456.45 -196.45)"/><polygon class="cls-38" points="285.97 253.23 280.32 261.02 276.57 261.02 282.23 253.23 285.97 253.23"/><polygon class="cls-38" points="293.61 253.23 287.96 261.02 284.22 261.02 289.87 253.23 293.61 253.23"/><polygon class="cls-38" points="301.25 253.23 295.6 261.02 291.86 261.02 297.51 253.23 301.25 253.23"/><path class="cls-38" d="M764.74,450.52h0l-5,7H756l5.65-7.78h2.3A.83.83,0,0,1,764.74,450.52Z" transform="translate(-456.45 -196.45)"/><rect class="cls-22" x="269.91" y="234.73" width="38.38" height="17.32" rx="1.3"/><path class="cls-39" d="M764.06,433v13.62a1.09,1.09,0,0,1-1.09,1.08H728.14a1.09,1.09,0,0,1-1.09-1.08V433a1.08,1.08,0,0,1,1.09-1.08H763A1.08,1.08,0,0,1,764.06,433Z" transform="translate(-456.45 -196.45)"/><path class="cls-28" d="M741.77,437.55a.93.93,0,0,1-1,1,.91.91,0,0,1-1-1v-1.81h.58v1.79c0,.36.14.54.45.54s.46-.18.46-.54v-1.79h.58Z" transform="translate(-456.45 -196.45)"/><path class="cls-28" d="M744.35,438.45h-.74l-.87-2.15a6.56,6.56,0,0,1,.08,1.09v1.06h-.52v-2.71H743l.87,2.15a8.35,8.35,0,0,1-.07-1v-1.19h.52Z" transform="translate(-456.45 -196.45)"/><path class="cls-28" d="M747,437.08a1.21,1.21,0,0,1-1.33,1.37h-.78v-2.71h.71C746.35,435.74,747,436,747,437.08Zm-1.53-.92V438h.23c.4,0,.7-.18.7-.94s-.32-.92-.71-.92Z" transform="translate(-456.45 -196.45)"/><path class="cls-28" d="M749,436.16h-1v.7h.86v.42H748V438h1.05v.43h-1.62v-2.71h1.62Z" transform="translate(-456.45 -196.45)"/><path class="cls-28" d="M750.41,437.39h-.3v1.06h-.57v-2.71h.84c.73,0,1.1.26,1.1.81a.75.75,0,0,1-.54.73l.7,1.17H751Zm-.3-.41h.3c.31,0,.47-.13.47-.43s-.16-.4-.51-.4h-.26Z" transform="translate(-456.45 -196.45)"/><path class="cls-28" d="M734,440.67l-.28.33a.78.78,0,0,0-.5-.19c-.36,0-.63.27-.63,1s.26,1,.64,1a.87.87,0,0,0,.54-.22l.27.33a1.16,1.16,0,0,1-.83.34c-.73,0-1.22-.49-1.22-1.42s.52-1.41,1.2-1.41A1.13,1.13,0,0,1,734,440.67Z" transform="translate(-456.45 -196.45)"/><path class="cls-28" d="M736.57,441.79c0,.89-.46,1.42-1.21,1.42s-1.2-.51-1.2-1.42.46-1.41,1.2-1.41S736.57,440.89,736.57,441.79Zm-1.81,0c0,.71.23,1,.6,1s.6-.28.6-1-.21-1-.6-1S734.76,441.08,734.76,441.79Z" transform="translate(-456.45 -196.45)"/><path class="cls-28" d="M739.05,443.15h-.74l-.87-2.15a7.93,7.93,0,0,1,.08,1.1v1H737v-2.71h.73l.87,2.15a7.87,7.87,0,0,1-.08-1v-1.19h.53Z" transform="translate(-456.45 -196.45)"/><path class="cls-28" d="M741.36,440.72l-.28.31a.93.93,0,0,0-.6-.22c-.23,0-.39.1-.39.29s.1.27.54.4.81.37.81.87-.4.84-1.05.84a1.41,1.41,0,0,1-1-.38l.3-.32a1,1,0,0,0,.69.27c.28,0,.47-.14.47-.37s-.11-.31-.52-.44c-.59-.18-.82-.42-.82-.83s.4-.76.94-.76A1.25,1.25,0,0,1,741.36,440.72Z" transform="translate(-456.45 -196.45)"/><path class="cls-28" d="M743.49,440.89h-.69v2.26h-.58v-2.26h-.72v-.45h2Z" transform="translate(-456.45 -196.45)"/><path class="cls-28" d="M744.71,442.09h-.29v1.06h-.58v-2.71h.85c.72,0,1.09.26,1.09.81a.73.73,0,0,1-.53.73l.7,1.17h-.66Zm-.29-.41h.3c.3,0,.47-.12.47-.43s-.16-.4-.51-.4h-.26Z" transform="translate(-456.45 -196.45)"/><path class="cls-28" d="M748.24,442.26a.92.92,0,0,1-1,.95.91.91,0,0,1-1-.95v-1.82h.57v1.79c0,.36.14.54.46.54s.46-.18.46-.54v-1.79h.57Z" transform="translate(-456.45 -196.45)"/><path class="cls-28" d="M750.66,440.67l-.29.33a.77.77,0,0,0-.49-.19c-.36,0-.63.27-.63,1s.26,1,.63,1a.83.83,0,0,0,.54-.22l.27.33a1.14,1.14,0,0,1-.83.34c-.72,0-1.22-.49-1.22-1.42a1.24,1.24,0,0,1,1.21-1.41A1.16,1.16,0,0,1,750.66,440.67Z" transform="translate(-456.45 -196.45)"/><path class="cls-28" d="M752.71,440.89H752v2.26h-.58v-2.26h-.72v-.45h2Z" transform="translate(-456.45 -196.45)"/><path class="cls-28" d="M753.65,443.15h-.58v-2.71h.58Z" transform="translate(-456.45 -196.45)"/><path class="cls-28" d="M756.49,441.79c0,.89-.45,1.42-1.2,1.42s-1.21-.51-1.21-1.42.47-1.41,1.21-1.41S756.49,440.89,756.49,441.79Zm-1.8,0c0,.71.23,1,.6,1s.6-.28.6-1-.21-1-.6-1S754.69,441.08,754.69,441.79Z" transform="translate(-456.45 -196.45)"/><path class="cls-28" d="M759,443.15h-.75l-.86-2.15a7.93,7.93,0,0,1,.08,1.1v1h-.52v-2.71h.72l.88,2.15a7.87,7.87,0,0,1-.08-1v-1.19H759Z" transform="translate(-456.45 -196.45)"/></g></g></svg>