<svg id="Слой_1" data-name="Слой 1" xmlns="http://www.w3.org/2000/svg" viewBox="0 0 506.28 167.68"><defs><style>.cls-1{fill:#223d7f;}.cls-2{fill:#262424;}</style></defs><title>logo</title><polygon class="cls-1" points="33.98 1.69 14.73 82.06 38.34 82.06 57.7 1.69 33.98 1.69"/><path class="cls-1" d="M539.06,338.2c-.47-1-.95-2-1.43-3.06-2-4.2-4-8.31-6-12.22s-3.95-7.58-5.84-11-3.7-6.42-5.37-8.95l-1-1.58H502.17l-19.25,80.37h23.39l10.17-42.43c2.56,4.93,5,10.06,7.31,15.34,3.59,8.22,6.89,16.55,9.81,24.76l.83,2.33H552l19.37-80.37H547.79Z" transform="translate(-429.86 -299.73)"/><polygon class="cls-1" points="216.1 1.69 149.39 1.69 144.29 22.56 165.8 22.56 151.51 82.06 175.23 82.06 189.52 22.56 211 22.56 216.1 1.69"/><polygon class="cls-1" points="274.4 22.25 279.54 1.69 224.34 1.69 205.08 82.06 262.55 82.06 267.67 61.4 233.74 61.4 236.33 50.41 264.04 50.41 269.04 30.07 241.23 30.07 243.01 22.25 274.4 22.25"/><path class="cls-1" d="M749.08,361.88l-.55.06c-1,.09-2.2.14-3.49.14-4.08,0-7-1-8.89-3.13s-3-6-3-11.26a33.88,33.88,0,0,1,1.63-10.56,25.53,25.53,0,0,1,4.65-8.53,21.93,21.93,0,0,1,7.36-5.71,22.76,22.76,0,0,1,10-2.08,27.08,27.08,0,0,1,7.27,1,26.25,26.25,0,0,1,7,3.09l3.37,2.11,8.87-19.17-2.54-1.65a38.35,38.35,0,0,0-11.24-4.9,46.12,46.12,0,0,0-11.63-1.59,48.46,48.46,0,0,0-21,4.36,46.73,46.73,0,0,0-24.61,27,52.07,52.07,0,0,0-3.12,17.58,44.51,44.51,0,0,0,2.09,14,29.52,29.52,0,0,0,6.49,11,29,29,0,0,0,10.77,7.05,39.9,39.9,0,0,0,14.33,2.4,79.72,79.72,0,0,0,15-1.17,56.06,56.06,0,0,0,9.17-2.46l1.7-.66L779,336H755.3Z" transform="translate(-429.86 -299.73)"/><path class="cls-1" d="M847.3,307.61a30,30,0,0,0-9.94-5.18,44.52,44.52,0,0,0-13.45-1.86c-3,0-6.43.15-10.12.44a110.58,110.58,0,0,0-11.48,1.53l-2.24.41-18.81,78.84h23.6L811.32,355h3.45a70.3,70.3,0,0,1,4.3,10c1.66,4.76,3.31,9.61,4.91,14.4l.8,2.4h25l-1.47-4.57c-1.85-5.76-3.85-11.35-6-16.64-1.48-3.73-3-7.11-4.41-10.1a32.72,32.72,0,0,0,6.47-3.48,27.71,27.71,0,0,0,6.66-6.5,22,22,0,0,0,3.51-7.68,33.58,33.58,0,0,0,.89-7.68,23.53,23.53,0,0,0-2-9.5A21.48,21.48,0,0,0,847.3,307.61Zm-27.43,14c1.21-.07,2.39-.1,3.51-.1a16.76,16.76,0,0,1,4.87.57,6.48,6.48,0,0,1,2.39,1.25,3.39,3.39,0,0,1,1,1.41,7.73,7.73,0,0,1,.36,2.37,6.89,6.89,0,0,1-.61,2.79,5.71,5.71,0,0,1-1.9,2.25,13.67,13.67,0,0,1-4.44,2,29.81,29.81,0,0,1-7.65.83h-1.19l3.15-13.3Z" transform="translate(-429.86 -299.73)"/><path class="cls-1" d="M933.74,319.88A31,31,0,0,0,926.87,309a30.14,30.14,0,0,0-10.53-6.89,35.93,35.93,0,0,0-13.13-2.35,40.38,40.38,0,0,0-19.1,4.48A45.68,45.68,0,0,0,870,315.67a51.31,51.31,0,0,0-8.8,15.72A53,53,0,0,0,858.1,349a39.83,39.83,0,0,0,2.4,14.16,30.89,30.89,0,0,0,6.87,10.9,30,30,0,0,0,10.53,6.89A35.72,35.72,0,0,0,891,383.27a41.15,41.15,0,0,0,19.19-4.42,45.19,45.19,0,0,0,14.17-11.42,50.54,50.54,0,0,0,8.75-15.8,54.25,54.25,0,0,0,3-17.6A39.81,39.81,0,0,0,933.74,319.88Zm-41,42.2c-3.81,0-6.41-1.1-8-3.38C883,356,882,352.35,882,347.8a33.94,33.94,0,0,1,1.58-10.27,29.93,29.93,0,0,1,4.35-8.72,22.16,22.16,0,0,1,6.31-5.87,13.6,13.6,0,0,1,7.23-2c3.81,0,6.41,1.11,8,3.39,1.81,2.67,2.73,6.34,2.73,10.9a33.67,33.67,0,0,1-1.58,10.31,29.94,29.94,0,0,1-4.35,8.68,22.27,22.27,0,0,1-6.31,5.86A13.54,13.54,0,0,1,892.73,362.08Z" transform="translate(-429.86 -299.73)"/><path class="cls-2" d="M442.58,415.38h15.2l-1.12,4.06h-15.2l-5.64,20.29a20.91,20.91,0,0,0-.91,5.28,5.63,5.63,0,0,0,.71,3.13,3.5,3.5,0,0,0,2.1,1.48,12.05,12.05,0,0,0,3.15.37,15.67,15.67,0,0,0,5.06-.7,30.12,30.12,0,0,0,3.24-1.29l.07,4a22.27,22.27,0,0,1-4,1.51,20,20,0,0,1-5.85.85,14.67,14.67,0,0,1-5.68-.92,5.78,5.78,0,0,1-3.06-2.8,9.31,9.31,0,0,1-.73-4.69,34.33,34.33,0,0,1,1.26-6.64l9.75-35.12,5-.89Z" transform="translate(-429.86 -299.73)"/><path class="cls-2" d="M465,434.42a30.39,30.39,0,0,1,3.86-8.74,28.26,28.26,0,0,1,5.5-6.24,21.68,21.68,0,0,1,6.35-3.73,18.82,18.82,0,0,1,6.5-1.21q7,0,9.9,4.57t.26,14.1c-.11.39-.23.78-.37,1.18s-.27.76-.41,1.1H469.77q-1.72,7,.48,10.78t9.28,3.76a23.09,23.09,0,0,0,6.4-.74A33.57,33.57,0,0,0,489.6,448l-.26,4.13a26.3,26.3,0,0,1-4.26,1.4,27.11,27.11,0,0,1-6.9.81,19.26,19.26,0,0,1-8.15-1.47,10.41,10.41,0,0,1-4.69-4.13,12.48,12.48,0,0,1-1.56-6.31A29.07,29.07,0,0,1,465,434.42Zm27.92-3q1.5-6-.22-9.29c-1.16-2.22-3.36-3.32-6.61-3.32a11.9,11.9,0,0,0-4.9,1,17.29,17.29,0,0,0-4.31,2.77,18.73,18.73,0,0,0-3.48,4,21,21,0,0,0-2.32,4.79Z" transform="translate(-429.86 -299.73)"/><path class="cls-2" d="M523.85,454.34a17.59,17.59,0,0,1-7.43-1.4,9.81,9.81,0,0,1-4.53-4,13.48,13.48,0,0,1-1.69-6.27,25.94,25.94,0,0,1,1.06-8.08,32.77,32.77,0,0,1,3.49-8.19A27.39,27.39,0,0,1,520,420a22.72,22.72,0,0,1,6.67-4.09,20.83,20.83,0,0,1,7.71-1.44,28.86,28.86,0,0,1,5.65.51,11.52,11.52,0,0,1,3.8,1.33l-2.4,4.13a12.11,12.11,0,0,0-3-1.18,20.58,20.58,0,0,0-4.82-.44,15.24,15.24,0,0,0-10.76,4.1q-4.43,4.1-6.52,11.62a25.31,25.31,0,0,0-1,6.23,9.76,9.76,0,0,0,1,4.87,7.52,7.52,0,0,0,3.4,3.18,13.7,13.7,0,0,0,6.06,1.14,18.53,18.53,0,0,0,5.4-.7,27.55,27.55,0,0,0,3.4-1.22l-.12,4.13a22,22,0,0,1-4.57,1.44A27,27,0,0,1,523.85,454.34Z" transform="translate(-429.86 -299.73)"/><path class="cls-2" d="M548.13,453.53l15.66-56.37,5-.89-5.62,20.22a37.81,37.81,0,0,1,5.18-1.37,28.08,28.08,0,0,1,5-.48,16.35,16.35,0,0,1,7,1.26,7.66,7.66,0,0,1,3.73,3.58,11,11,0,0,1,.92,5.57,35.14,35.14,0,0,1-1.28,7.16l-5.93,21.32h-4.79l5.49-19.77a38,38,0,0,0,1.35-6.87,9.36,9.36,0,0,0-.57-4.57,4.84,4.84,0,0,0-2.72-2.55,14.36,14.36,0,0,0-5.18-.77,18.64,18.64,0,0,0-2.75.22c-1,.15-1.94.31-2.83.48s-1.68.36-2.4.55-1.19.35-1.42.44l-9.12,32.84Z" transform="translate(-429.86 -299.73)"/><path class="cls-2" d="M606.24,416.71c1.54-.39,3.58-.84,6.13-1.33a48.45,48.45,0,0,1,9.06-.74,15.91,15.91,0,0,1,6.92,1.26,7.52,7.52,0,0,1,3.65,3.58,11.69,11.69,0,0,1,.93,5.57,33.63,33.63,0,0,1-1.25,7.16l-5.93,21.32H621l5.49-19.77a38,38,0,0,0,1.35-6.87,9.36,9.36,0,0,0-.57-4.57,4.88,4.88,0,0,0-2.69-2.55,13.76,13.76,0,0,0-5.06-.77,42,42,0,0,0-6,.37,21.12,21.12,0,0,0-3.39.66l-9.31,33.5H596Z" transform="translate(-429.86 -299.73)"/><path class="cls-2" d="M681.73,434.49a30.83,30.83,0,0,1-3.56,8.19,27,27,0,0,1-5.36,6.28,24.06,24.06,0,0,1-6.62,4,19.63,19.63,0,0,1-7.41,1.44,14.2,14.2,0,0,1-6.61-1.44,11.11,11.11,0,0,1-4.38-4,13.61,13.61,0,0,1-1.87-6.28,24.25,24.25,0,0,1,1-8.19,31.18,31.18,0,0,1,3.57-8.19,27.36,27.36,0,0,1,5.37-6.31,23.83,23.83,0,0,1,6.62-4.05,19.63,19.63,0,0,1,7.41-1.44,14.17,14.17,0,0,1,6.61,1.44,10.88,10.88,0,0,1,4.37,4.05,13.85,13.85,0,0,1,1.87,6.31A24.53,24.53,0,0,1,681.73,434.49Zm-5.09,0c1.33-4.77,1.27-8.57-.15-11.4s-4-4.24-7.83-4.24a14.48,14.48,0,0,0-10.18,4.24,24.19,24.19,0,0,0-6.49,11.4c-1.32,4.78-1.27,8.56.17,11.37s4,4.2,7.83,4.2a14.48,14.48,0,0,0,10.17-4.2A23.93,23.93,0,0,0,676.64,434.49Z" transform="translate(-429.86 -299.73)"/><path class="cls-2" d="M702.23,454.2a14.38,14.38,0,0,1-4.07-.63,4.87,4.87,0,0,1-3.58-4.65,14,14,0,0,1,.64-4.54l13.11-47.22,5-.89-13.33,48a10,10,0,0,0-.45,2.84,2.86,2.86,0,0,0,.52,1.7,2.8,2.8,0,0,0,1.48.92,18.49,18.49,0,0,0,2.4.52Z" transform="translate(-429.86 -299.73)"/><path class="cls-2" d="M755.3,434.49a31.18,31.18,0,0,1-3.57,8.19,26.78,26.78,0,0,1-5.36,6.28,24.16,24.16,0,0,1-6.61,4,19.63,19.63,0,0,1-7.41,1.44,14.17,14.17,0,0,1-6.61-1.44,11,11,0,0,1-4.38-4,13.5,13.5,0,0,1-1.87-6.28,24.25,24.25,0,0,1,1-8.19A30.54,30.54,0,0,1,724,426.3,27.57,27.57,0,0,1,729.4,420a23.88,23.88,0,0,1,6.63-4.05,19.63,19.63,0,0,1,7.41-1.44,14.2,14.2,0,0,1,6.61,1.44,11,11,0,0,1,4.37,4.05,14,14,0,0,1,1.86,6.31A24.25,24.25,0,0,1,755.3,434.49Zm-5.09,0q2-7.15-.16-11.4t-7.82-4.24a14.48,14.48,0,0,0-10.18,4.24,24.19,24.19,0,0,0-6.49,11.4c-1.33,4.78-1.27,8.56.17,11.37s4,4.2,7.83,4.2a14.48,14.48,0,0,0,10.17-4.2A24,24,0,0,0,750.21,434.49Z" transform="translate(-429.86 -299.73)"/><path class="cls-2" d="M792.41,449.1a11.3,11.3,0,0,1-1.56.85c-.68.32-1.5.65-2.45,1a21.37,21.37,0,0,1-3.19.85,20.67,20.67,0,0,1-3.82.33,17.61,17.61,0,0,1-6.13-1,9.85,9.85,0,0,1-4.53-3.25,11.39,11.39,0,0,1-2.13-5.72,22.28,22.28,0,0,1,1-8.52,27.45,27.45,0,0,1,3.35-7.53,25.94,25.94,0,0,1,5.25-6,23.58,23.58,0,0,1,6.78-4,22.09,22.09,0,0,1,8-1.44,38.27,38.27,0,0,1,8.32.71,46.33,46.33,0,0,1,4.9,1.36l-9.67,34.83q-2.38,8.56-7.82,12.21t-14.37,3.65a34.39,34.39,0,0,1-6.53-.55,29.57,29.57,0,0,1-4.76-1.29l2.16-4.35a17.74,17.74,0,0,0,4.45,1.4,30.22,30.22,0,0,0,6,.59q6.78,0,10.57-2.62t5.56-9Zm8-29.07a24.55,24.55,0,0,0-3-.7,35.24,35.24,0,0,0-5.59-.33,15.6,15.6,0,0,0-5.79,1.07,16.93,16.93,0,0,0-4.94,3,20,20,0,0,0-3.87,4.65,23.6,23.6,0,0,0-2.54,5.94,17.83,17.83,0,0,0-.76,6.46,9.17,9.17,0,0,0,1.48,4.39,6.87,6.87,0,0,0,3.11,2.47,10.89,10.89,0,0,0,4.14.78,20,20,0,0,0,6.2-1,18.5,18.5,0,0,0,4.79-2.22Z" transform="translate(-429.86 -299.73)"/><path class="cls-2" d="M819.3,453.53h-4.8l10.59-38.15h4.8Z" transform="translate(-429.86 -299.73)"/><path class="cls-2" d="M840.91,434.42a30.4,30.4,0,0,1,3.87-8.74,28.48,28.48,0,0,1,5.49-6.24,21.81,21.81,0,0,1,6.35-3.73,18.86,18.86,0,0,1,6.5-1.21q7,0,9.91,4.57t.25,14.1c-.11.39-.23.78-.36,1.18s-.28.76-.42,1.1H845.72q-1.74,7,.47,10.78t9.29,3.76a23.14,23.14,0,0,0,6.4-.74,35.17,35.17,0,0,0,3.67-1.25l-.26,4.13a26.15,26.15,0,0,1-4.27,1.4,27,27,0,0,1-6.9.81,19.29,19.29,0,0,1-8.15-1.47,10.33,10.33,0,0,1-4.68-4.13,12.48,12.48,0,0,1-1.57-6.31A29.46,29.46,0,0,1,840.91,434.42Zm27.92-3q1.51-6-.22-9.29c-1.16-2.22-3.36-3.32-6.6-3.32a11.83,11.83,0,0,0-4.9,1,16.93,16.93,0,0,0-4.31,2.77,18.73,18.73,0,0,0-3.48,4,21,21,0,0,0-2.33,4.79Z" transform="translate(-429.86 -299.73)"/><path class="cls-2" d="M893,450.14a17.63,17.63,0,0,0,7.21-1.37,6.78,6.78,0,0,0,4-4.61,6.45,6.45,0,0,0,.26-2.66,3.69,3.69,0,0,0-1-2,9.64,9.64,0,0,0-2.45-1.7c-1.05-.54-2.36-1.18-3.93-1.91-1.26-.59-2.45-1.2-3.55-1.81a11.26,11.26,0,0,1-2.8-2.14,6.42,6.42,0,0,1-1.56-2.92,8.37,8.37,0,0,1,.27-4.13,13,13,0,0,1,5.59-7.52,18.33,18.33,0,0,1,10.43-2.88,24,24,0,0,1,6.27.66,15.67,15.67,0,0,1,3.25,1.18l-2.29,4.28a22.38,22.38,0,0,0-2.66-1.18,17.72,17.72,0,0,0-6-.74,14.27,14.27,0,0,0-3.15.34,10.68,10.68,0,0,0-2.84,1,8.36,8.36,0,0,0-2.26,1.78,6.29,6.29,0,0,0-1.39,2.62,5.16,5.16,0,0,0-.15,2.66,3.93,3.93,0,0,0,1.19,2,9.89,9.89,0,0,0,2.36,1.59c1,.49,2.09,1,3.35,1.61s2.56,1.19,3.75,1.8a10.56,10.56,0,0,1,3,2.21,7.15,7.15,0,0,1,1.65,3.1,9.14,9.14,0,0,1-.3,4.54,12.58,12.58,0,0,1-6,7.82,22.37,22.37,0,0,1-11.33,2.66,24.22,24.22,0,0,1-7.43-.85,23.7,23.7,0,0,1-3.19-1.29l2.47-4.36a5.3,5.3,0,0,0,.82.48,15.43,15.43,0,0,0,1.79.74,17.12,17.12,0,0,0,2.79.7A22.41,22.41,0,0,0,893,450.14Z" transform="translate(-429.86 -299.73)"/></svg>