<svg viewBox="0 -26 512.00103 512" style="fill:#fff;" xmlns="http://www.w3.org/2000/svg"><path d="m464.671875 83.136719h-19.5c-4.203125 0-7.605469 3.40625-7.605469 7.605469 0 4.199218 3.402344 7.601562 7.605469 7.601562h19.5c17.710937 0 32.121094 14.40625 32.121094 32.109375v132.308594c-4.589844 2.617187-9.210938 5.144531-13.859375 7.605469-.011719.007812-.027344.015624-.042969.023437-36.890625 19.515625-75.636719 34.035156-115.871094 43.4375v-63.738281c0-22.734375-18.5-41.234375-41.238281-41.234375h-139.5625c-22.738281 0-41.238281 18.5-41.238281 41.234375v63.742187c-45.328125-10.59375-88.765625-27.667969-129.773438-51.070312v-132.308594c0-17.703125 14.40625-32.109375 32.109375-32.109375h367.4375c4.199219 0 7.601563-3.402344 7.601563-7.601562 0-4.199219-3.402344-7.605469-7.601563-7.605469h-29.488281v-35.210938c0-26.425781-21.5-47.925781-47.925781-47.925781h-162.6875c-26.421875 0-47.921875 21.5-47.921875 47.925781v35.210938h-79.414063c-26.089844 0-47.316406 21.226562-47.316406 47.316406v136.699219c0 2.707031 1.4375 5.210937 3.777344 6.570312 4.660156 2.714844 9.355468 5.339844 14.078125 7.894532v35.472656c0 4.199218 3.402343 7.605468 7.601562 7.605468s7.605469-3.40625 7.605469-7.605468v-27.570313c53.769531 26.789063 111.238281 43.460938 171.351562 49.660157v25.929687c0 16.832031 13.691407 30.523437 30.519532 30.523437h42.125c16.832031 0 30.523437-13.691406 30.523437-30.523437v-25.9375c60.09375-6.191406 117.5625-22.859375 171.34375-49.648437v123.292968c0 17.640625-14.351562 31.996094-31.996093 31.996094h-381.871094c-17.644532 0-31.996094-14.355469-31.996094-31.996094v-65.308594c0-4.199218-3.40625-7.605468-7.605469-7.605468s-7.601562 3.40625-7.601562 7.605468v65.308594c0 26.027344 21.175781 47.203125 47.203125 47.203125h381.871094c26.03125 0 47.207031-21.175781 47.207031-47.203125v-131.195312c4.722656-2.554688 9.421875-5.183594 14.085937-7.898438 2.339844-1.363281 3.777344-3.863281 3.777344-6.570312v-136.699219c0-26.089844-21.230469-47.316406-47.328125-47.316406zm-136.582031-67.929688c-3.285156 14.367188-16.171875 25.117188-31.519532 25.117188h-81.148437c-15.347656 0-28.234375-10.75-31.523437-25.117188zm-186.152344 32.71875c0-15.945312 11.472656-29.257812 26.59375-32.132812 3.734375 22.511719 23.335938 39.738281 46.890625 39.738281h81.152344c23.554687 0 43.152343-17.226562 46.886719-39.738281 15.125 2.875 26.597656 16.183593 26.597656 32.132812v35.210938h-228.117188v-35.210938zm150.4375 317.183594c0 8.445313-6.871094 15.316406-15.316406 15.316406h-42.121094c-8.445312 0-15.316406-6.871093-15.316406-15.316406v-64.113281c0-8.445313 6.871094-15.3125 15.316406-15.3125h42.121094c8.445312 0 15.316406 6.867187 15.316406 15.3125zm-15.316406-94.636719h-42.121094c-16.832031 0-30.523438 13.695313-30.523438 30.523438v22.882812c-14.914062-1.585937-29.660156-3.832031-44.222656-6.746094v-67.042968c0-14.351563 11.675782-26.027344 26.027344-26.027344h139.5625c14.351562 0 26.03125 11.675781 26.03125 26.027344v67.039062c-14.566406 2.910156-29.3125 5.15625-44.230469 6.742188v-22.875c0-16.828125-13.691406-30.523438-30.523437-30.523438zm0 0"/><path d="m269.5625 300.890625h-27.128906c-4.199219 0-7.605469 3.402344-7.605469 7.605469v49.117187c0 4.199219 3.40625 7.605469 7.605469 7.605469h27.128906c4.199219 0 7.601562-3.40625 7.601562-7.605469v-49.117187c0-4.203125-3.402343-7.605469-7.601562-7.605469zm-7.605469 49.121094h-11.921875v-33.914063h11.921875zm0 0"/></svg>