<svg id="Слой_1" data-name="Слой 1" xmlns="http://www.w3.org/2000/svg" viewBox="0 0 66.68 87.56"><defs><style>.cls-1{fill:#444545;}.cls-2{fill:#c63437;}.cls-3{fill:#fff;}.cls-4{fill:#b5b5b5;}</style></defs><title>logo-icon</title><path class="cls-1" d="M697.78,356a95.35,95.35,0,0,1,1.8,11.92s-8.83-.46-10,9.25c0,0,.85-2.43,4.61-2.24,4.22.22,5.5,4.08,4.81,7.46h-1.63s1.82,5-1,8.65c-2.44,3.18-6.68,5.67-10.31,7.13l11.28,15.5.36-.22a32.71,32.71,0,0,0,0-57.46Z" transform="translate(-649.16 -339.54)"/><path class="cls-1" d="M685.45,366.25s-4.33,4.58-4.33,10.5,3.33,8.66,3.33,8.66a11.92,11.92,0,0,1,5.34-5.76s.69-3.47,4.13-3.15c2.31.21,2.76,1.79,2.76,4.48l-1,1.1s1.94,3.38.5,6-8.4,7.73-16.84,10.48l2.09,24.58s.81,4-1.87,4-2.88-2-3.13-3.08-1.25-15.63,0-24,4.91-11.88,4.91-11.88-6.07-4.47-6.07-11.38,2.46-10.85,2.46-10.85l-24.34-14.13a2.74,2.74,0,0,1-.36-.23c-.84-.61-3.61-3.37-1.66-6.4,0,0,1.37-1.94,4.06-.13C657.45,346.41,685.45,366.25,685.45,366.25Z" transform="translate(-649.16 -339.54)"/><path class="cls-1" d="M653,353.82l21.38,11.26s2.16.27,1.6,1.79a2.28,2.28,0,0,1-3.08,1.55l-20.49-8.05s-2.65-.92-3.14-3c-.24-1.06-.23-2.91.65-3.54A2.77,2.77,0,0,1,653,353.82Z" transform="translate(-649.16 -339.54)"/><path class="cls-1" d="M652.77,362.71l19.79,7.55s2.05,0,1.67,1.4a2,2,0,0,1-2.65,1.38c-.33-.07-18.25-4.9-18.25-4.9a4.86,4.86,0,0,1-3.09-2.09c-.44-.83-.66-2.47-.12-3.06A2.29,2.29,0,0,1,652.77,362.71Z" transform="translate(-649.16 -339.54)"/><path class="cls-1" d="M655.6,371.22l16.67,4s2-.16,1.76,1.07-.87,1.68-2.37,1.58c-.3,0-14.73-1.94-14.73-1.94a5.08,5.08,0,0,1-3.45-1.56,2.41,2.41,0,0,1-.18-2.61A2.13,2.13,0,0,1,655.6,371.22Z" transform="translate(-649.16 -339.54)"/><path class="cls-1" d="M697.67,366.78l-5.4-24.57s-.5-2.38-2.07-2.38-2.93,2.06-1.81,6.31,4.91,16.46,4.91,16.46-8.42,2.82-9.93,11.68a10.88,10.88,0,0,0,.49,5.31,10.23,10.23,0,0,0,1.68,2.94,7.88,7.88,0,0,1,2.62-2.74S685.75,370.11,697.67,366.78Z" transform="translate(-649.16 -339.54)"/><path class="cls-1" d="M686.13,345.87l5.23,15.38s.5,1.25-.21,1.63a1.14,1.14,0,0,1-1.66-.5c-.47-.8-4.23-7.87-5.63-10.49a8.77,8.77,0,0,1-1.07-3.63,5.79,5.79,0,0,1,.31-2.36C683.91,343.81,685.51,344.25,686.13,345.87Z" transform="translate(-649.16 -339.54)"/><path class="cls-1" d="M681.86,352.41l6.33,11.1s.57.9.08,1.29a.9.9,0,0,1-1.36-.14c-.48-.54-4.44-5.45-5.91-7.26a7.06,7.06,0,0,1-1.37-2.65,4.7,4.7,0,0,1-.11-1.87C679.84,351.14,681.14,351.25,681.86,352.41Z" transform="translate(-649.16 -339.54)"/><path class="cls-1" d="M680.87,400.59s2.67,19.14,3.09,21.89,1.69,4.16,2.93,3.45a5.57,5.57,0,0,0,2.73-5c0-2.69-6.4-18.22-6.83-19.65s-.86-2-1.38-1.85S680.78,399.93,680.87,400.59Z" transform="translate(-649.16 -339.54)"/><path class="cls-1" d="M683.41,399.8s7.22,15.87,8.28,18.13,2.22,3.11,3.42,2.24c1-.76,1.8-2.75,1.07-5.06S686,401,685.23,399.88s-1.24-1.48-1.67-1.25S683.16,399.26,683.41,399.8Z" transform="translate(-649.16 -339.54)"/><path class="cls-2" d="M674.05,416.1c-2.57-17.43,5.08-27.14,5.08-27.14a19,19,0,0,1-6.08-9.2c-12.14,0-18.53-1.9-21.59-3.3h0A32.76,32.76,0,0,0,674,416.1Z" transform="translate(-649.16 -339.54)"/><path class="cls-2" d="M698.78,356a108.56,108.56,0,0,1,1.93,12.84,10.37,10.37,0,0,0-11.08,8.33,5.55,5.55,0,0,1,5.61-2.24c4.15.78,5.5,4.66,4.81,8h-1.63s1.82,4.44-1,8.08c-2.44,3.18-6.68,5.67-10.31,7.13l11.47,15.37h0a32.71,32.71,0,0,0,.18-57.56Z" transform="translate(-649.16 -339.54)"/><path class="cls-3" d="M686.05,366.12s-4.34,4.58-4.34,10.5,3.34,8.67,3.34,8.67a12.8,12.8,0,0,1,5.12-5.27,4.09,4.09,0,0,1,3.88-3.07c3.12,0,4.37,2.32,4.37,5h-2.18s1.93,3.38.5,6-8.19,8.19-16.63,10.94L682,423s.81,4-1.88,4-2.87-2-3.12-3.08-1.25-15.62,0-24,5.31-11.69,5.31-11.69-6.38-4.66-6.38-11.58a20.47,20.47,0,0,1,2.82-11l-24.57-14.26a2.74,2.74,0,0,1-.36-.23c-.84-.61-3.84-3.1-1.89-6.13,0,0,1.38-1.94,4.07-.13C658,346.28,686.05,366.12,686.05,366.12Z" transform="translate(-649.16 -339.54)"/><path class="cls-3" d="M653.62,353.53,675,364.78s1.72.63,1,2.09a1.74,1.74,0,0,1-2.42.79c-.38-.12-20.5-8.05-20.5-8.05s-2.65-.92-3.14-3c-.24-1.05-.29-2.44.59-3.07A2.75,2.75,0,0,1,653.62,353.53Z" transform="translate(-649.16 -339.54)"/><path class="cls-3" d="M653.36,362.41l19.8,7.55s1.53.37,1.07,1.7a1.51,1.51,0,0,1-2,.92c-.34-.07-18.25-4.89-18.25-4.89a4.91,4.91,0,0,1-3.1-2.09c-.43-.83-.7-2.31-.17-2.9A2.31,2.31,0,0,1,653.36,362.41Z" transform="translate(-649.16 -339.54)"/><path class="cls-3" d="M656.19,370.93,672.87,375s1.39.13,1.16,1.36a1.35,1.35,0,0,1-1.65,1.07c-.3,0-14.73-1.94-14.73-1.94s-2.37-.1-3.45-1.56c-.5-.67-.84-1.75-.31-2.39A2.13,2.13,0,0,1,656.19,370.93Z" transform="translate(-649.16 -339.54)"/><path class="cls-4" d="M698.05,366.85l-5.19-24.94s-.5-2.37-2.06-2.37-2.94,2.06-1.81,6.31,5.06,16.94,5.06,16.94-8.67,3-10,11.44a10.15,10.15,0,0,0,.43,5.07,7.84,7.84,0,0,0,1.5,2.57,11.1,11.1,0,0,1,2.8-2.37S686.13,370.18,698.05,366.85Z" transform="translate(-649.16 -339.54)"/><path class="cls-4" d="M686.72,345.58,692,361s.49,1.25-.21,1.63a1.15,1.15,0,0,1-1.67-.51c-.46-.79-4.23-7.86-5.63-10.48a9,9,0,0,1-1.07-3.64,5.72,5.72,0,0,1,.31-2.35C684.51,343.51,686.1,344,686.72,345.58Z" transform="translate(-649.16 -339.54)"/><path class="cls-4" d="M682.45,352.12l6.33,11.1s.57.89.08,1.29a.9.9,0,0,1-1.36-.14c-.48-.55-4.44-5.45-5.91-7.26a7,7,0,0,1-1.36-2.65,4.53,4.53,0,0,1-.12-1.87C680.43,350.85,681.73,351,682.45,352.12Z" transform="translate(-649.16 -339.54)"/><path class="cls-3" d="M681.46,400.29s2.68,19.15,3.09,21.9,1.69,4.16,2.93,3.45a5.6,5.6,0,0,0,2.74-5c-.05-2.69-6.41-18.22-6.84-19.65s-.85-2-1.38-1.86S681.37,399.63,681.46,400.29Z" transform="translate(-649.16 -339.54)"/><path class="cls-3" d="M684,399.51s7.22,15.87,8.29,18.13,2.22,3.11,3.41,2.24c1-.76,1.8-2.75,1.07-5.06s-10.21-14.11-10.95-15.23-1.24-1.48-1.67-1.26S683.75,399,684,399.51Z" transform="translate(-649.16 -339.54)"/></svg>